<mxfile host="Electron" modified="2023-07-23T08:23:48.062Z" agent="Mozilla/5.0 (Windows NT 10.0; Win64; x64) AppleWebKit/537.36 (KHTML, like Gecko) draw.io/21.3.7 Chrome/112.0.5615.204 Electron/24.5.0 Safari/537.36" etag="YvbYrSAEhEIfEZzCLTv_" version="21.3.7" type="device">
  <diagram name="第 1 页" id="qlOGB6SVWAi-sT6qx1Pp">
    <mxGraphModel dx="875" dy="524" grid="1" gridSize="10" guides="1" tooltips="1" connect="1" arrows="1" fold="1" page="1" pageScale="1" pageWidth="827" pageHeight="1169" math="0" shadow="0">
      <root>
        <mxCell id="0" />
        <mxCell id="1" parent="0" />
        <mxCell id="iLK0uWiYWTVj-ZGnwQkQ-2" value="" style="endArrow=block;endSize=10;endFill=0;shadow=0;strokeWidth=1;rounded=0;edgeStyle=elbowEdgeStyle;elbow=vertical;entryX=0.587;entryY=1.013;entryDx=0;entryDy=0;entryPerimeter=0;" edge="1" parent="1" target="iLK0uWiYWTVj-ZGnwQkQ-31">
          <mxGeometry width="160" relative="1" as="geometry">
            <mxPoint x="380" y="389.9999999999999" as="sourcePoint" />
            <mxPoint x="480" y="288" as="targetPoint" />
          </mxGeometry>
        </mxCell>
        <mxCell id="iLK0uWiYWTVj-ZGnwQkQ-3" value="T2" style="swimlane;fontStyle=0;align=center;verticalAlign=top;childLayout=stackLayout;horizontal=1;startSize=26;horizontalStack=0;resizeParent=1;resizeLast=0;collapsible=1;marginBottom=0;rounded=0;shadow=0;strokeWidth=1;" vertex="1" parent="1">
          <mxGeometry x="510" y="390" width="160" height="100" as="geometry">
            <mxRectangle x="340" y="380" width="170" height="26" as="alternateBounds" />
          </mxGeometry>
        </mxCell>
        <mxCell id="iLK0uWiYWTVj-ZGnwQkQ-4" value="" style="line;html=1;strokeWidth=1;align=left;verticalAlign=middle;spacingTop=-1;spacingLeft=3;spacingRight=3;rotatable=0;labelPosition=right;points=[];portConstraint=eastwest;" vertex="1" parent="iLK0uWiYWTVj-ZGnwQkQ-3">
          <mxGeometry y="26" width="160" height="74" as="geometry" />
        </mxCell>
        <mxCell id="iLK0uWiYWTVj-ZGnwQkQ-5" value="" style="endArrow=block;endSize=10;endFill=0;shadow=0;strokeWidth=1;rounded=0;edgeStyle=elbowEdgeStyle;elbow=vertical;entryX=0.591;entryY=1.016;entryDx=0;entryDy=0;entryPerimeter=0;" edge="1" parent="1" source="iLK0uWiYWTVj-ZGnwQkQ-3" target="iLK0uWiYWTVj-ZGnwQkQ-31">
          <mxGeometry width="160" relative="1" as="geometry">
            <mxPoint x="390" y="403" as="sourcePoint" />
            <mxPoint x="480" y="288" as="targetPoint" />
          </mxGeometry>
        </mxCell>
        <mxCell id="iLK0uWiYWTVj-ZGnwQkQ-10" value="strategyA" style="swimlane;fontStyle=0;align=center;verticalAlign=top;childLayout=stackLayout;horizontal=1;startSize=26;horizontalStack=0;resizeParent=1;resizeLast=0;collapsible=1;marginBottom=0;rounded=0;shadow=0;strokeWidth=1;" vertex="1" parent="1">
          <mxGeometry x="300" y="390" width="160" height="100" as="geometry">
            <mxRectangle x="340" y="380" width="170" height="26" as="alternateBounds" />
          </mxGeometry>
        </mxCell>
        <mxCell id="iLK0uWiYWTVj-ZGnwQkQ-11" value="" style="line;html=1;strokeWidth=1;align=left;verticalAlign=middle;spacingTop=-1;spacingLeft=3;spacingRight=3;rotatable=0;labelPosition=right;points=[];portConstraint=eastwest;" vertex="1" parent="iLK0uWiYWTVj-ZGnwQkQ-10">
          <mxGeometry y="26" width="160" height="74" as="geometry" />
        </mxCell>
        <mxCell id="iLK0uWiYWTVj-ZGnwQkQ-15" value="strategyB" style="swimlane;fontStyle=0;align=center;verticalAlign=top;childLayout=stackLayout;horizontal=1;startSize=26;horizontalStack=0;resizeParent=1;resizeLast=0;collapsible=1;marginBottom=0;rounded=0;shadow=0;strokeWidth=1;" vertex="1" parent="1">
          <mxGeometry x="510" y="390" width="160" height="100" as="geometry">
            <mxRectangle x="340" y="380" width="170" height="26" as="alternateBounds" />
          </mxGeometry>
        </mxCell>
        <mxCell id="iLK0uWiYWTVj-ZGnwQkQ-16" value="" style="line;html=1;strokeWidth=1;align=left;verticalAlign=middle;spacingTop=-1;spacingLeft=3;spacingRight=3;rotatable=0;labelPosition=right;points=[];portConstraint=eastwest;" vertex="1" parent="iLK0uWiYWTVj-ZGnwQkQ-15">
          <mxGeometry y="26" width="160" height="74" as="geometry" />
        </mxCell>
        <mxCell id="iLK0uWiYWTVj-ZGnwQkQ-32" value="" style="edgeStyle=orthogonalEdgeStyle;rounded=0;orthogonalLoop=1;jettySize=auto;html=1;entryX=0;entryY=0.5;entryDx=0;entryDy=0;" edge="1" parent="1" source="iLK0uWiYWTVj-ZGnwQkQ-17" target="iLK0uWiYWTVj-ZGnwQkQ-29">
          <mxGeometry relative="1" as="geometry" />
        </mxCell>
        <mxCell id="iLK0uWiYWTVj-ZGnwQkQ-17" value="Context" style="swimlane;fontStyle=0;align=center;verticalAlign=top;childLayout=stackLayout;horizontal=1;startSize=26;horizontalStack=0;resizeParent=1;resizeLast=0;collapsible=1;marginBottom=0;rounded=0;shadow=0;strokeWidth=1;" vertex="1" parent="1">
          <mxGeometry x="160" y="190" width="160" height="100" as="geometry">
            <mxRectangle x="340" y="380" width="170" height="26" as="alternateBounds" />
          </mxGeometry>
        </mxCell>
        <mxCell id="iLK0uWiYWTVj-ZGnwQkQ-18" value="" style="line;html=1;strokeWidth=1;align=left;verticalAlign=middle;spacingTop=-1;spacingLeft=3;spacingRight=3;rotatable=0;labelPosition=right;points=[];portConstraint=eastwest;" vertex="1" parent="iLK0uWiYWTVj-ZGnwQkQ-17">
          <mxGeometry y="26" width="160" height="74" as="geometry" />
        </mxCell>
        <mxCell id="iLK0uWiYWTVj-ZGnwQkQ-36" value="" style="edgeStyle=orthogonalEdgeStyle;rounded=0;orthogonalLoop=1;jettySize=auto;html=1;dashed=1;" edge="1" parent="1" source="iLK0uWiYWTVj-ZGnwQkQ-19" target="iLK0uWiYWTVj-ZGnwQkQ-35">
          <mxGeometry relative="1" as="geometry" />
        </mxCell>
        <mxCell id="iLK0uWiYWTVj-ZGnwQkQ-19" value="+ Set( strategy )" style="text;html=1;align=center;verticalAlign=middle;resizable=0;points=[];autosize=1;strokeColor=none;fillColor=none;" vertex="1" parent="1">
          <mxGeometry x="185" y="260" width="110" height="30" as="geometry" />
        </mxCell>
        <mxCell id="iLK0uWiYWTVj-ZGnwQkQ-24" value="+Do()" style="text;html=1;align=center;verticalAlign=middle;resizable=0;points=[];autosize=1;strokeColor=none;fillColor=none;" vertex="1" parent="1">
          <mxGeometry x="355" y="458" width="50" height="30" as="geometry" />
        </mxCell>
        <mxCell id="iLK0uWiYWTVj-ZGnwQkQ-26" value="+Do()" style="text;html=1;align=center;verticalAlign=middle;resizable=0;points=[];autosize=1;strokeColor=none;fillColor=none;" vertex="1" parent="1">
          <mxGeometry x="565" y="458" width="50" height="30" as="geometry" />
        </mxCell>
        <mxCell id="iLK0uWiYWTVj-ZGnwQkQ-29" value="strategy" style="swimlane;fontStyle=0;align=center;verticalAlign=top;childLayout=stackLayout;horizontal=1;startSize=26;horizontalStack=0;resizeParent=1;resizeLast=0;collapsible=1;marginBottom=0;rounded=0;shadow=0;strokeWidth=1;" vertex="1" parent="1">
          <mxGeometry x="400" y="190" width="160" height="100" as="geometry">
            <mxRectangle x="550" y="140" width="160" height="26" as="alternateBounds" />
          </mxGeometry>
        </mxCell>
        <mxCell id="iLK0uWiYWTVj-ZGnwQkQ-30" value="" style="line;html=1;strokeWidth=1;align=left;verticalAlign=middle;spacingTop=-1;spacingLeft=3;spacingRight=3;rotatable=0;labelPosition=right;points=[];portConstraint=eastwest;" vertex="1" parent="iLK0uWiYWTVj-ZGnwQkQ-29">
          <mxGeometry y="26" width="160" height="74" as="geometry" />
        </mxCell>
        <mxCell id="iLK0uWiYWTVj-ZGnwQkQ-31" value="+ Do()" style="text;html=1;align=center;verticalAlign=middle;resizable=0;points=[];autosize=1;strokeColor=none;fillColor=none;" vertex="1" parent="1">
          <mxGeometry x="450" y="260" width="60" height="30" as="geometry" />
        </mxCell>
        <mxCell id="iLK0uWiYWTVj-ZGnwQkQ-33" value="具体策略类" style="text;html=1;align=center;verticalAlign=middle;resizable=0;points=[];autosize=1;strokeColor=none;fillColor=none;" vertex="1" parent="1">
          <mxGeometry x="450" y="340" width="80" height="30" as="geometry" />
        </mxCell>
        <mxCell id="iLK0uWiYWTVj-ZGnwQkQ-34" value="抽象策略类" style="text;html=1;align=center;verticalAlign=middle;resizable=0;points=[];autosize=1;strokeColor=none;fillColor=none;" vertex="1" parent="1">
          <mxGeometry x="440" y="160" width="80" height="30" as="geometry" />
        </mxCell>
        <mxCell id="iLK0uWiYWTVj-ZGnwQkQ-35" value="传入具体策略类" style="text;html=1;align=center;verticalAlign=middle;resizable=0;points=[];autosize=1;strokeColor=none;fillColor=none;" vertex="1" parent="1">
          <mxGeometry x="160" y="350" width="110" height="30" as="geometry" />
        </mxCell>
      </root>
    </mxGraphModel>
  </diagram>
</mxfile>
